<svg width="21" height="21" viewBox="0 0 21 21" fill="none" xmlns="http://www.w3.org/2000/svg">
<path d="M14.875 1.75H6.125C3.70875 1.75 1.75 3.70875 1.75 6.125V14.875C1.75 17.2912 3.70875 19.25 6.125 19.25H14.875C17.2912 19.25 19.25 17.2912 19.25 14.875V6.125C19.25 3.70875 17.2912 1.75 14.875 1.75Z" stroke="#D3D3D3" stroke-linecap="round" stroke-linejoin="round"/>
<path d="M13.9993 9.94853C14.1072 10.6767 13.9829 11.4205 13.6438 12.0739C13.3047 12.7274 12.7683 13.2573 12.1107 13.5882C11.4531 13.9192 10.7079 14.0344 9.98107 13.9175C9.25424 13.8005 8.5828 13.4573 8.06224 12.9368C7.54168 12.4162 7.19852 11.7448 7.08156 11.018C6.96461 10.2911 7.07981 9.54593 7.41079 8.88835C7.74177 8.23077 8.27167 7.6943 8.92512 7.35524C9.57857 7.01617 10.3223 6.89179 11.0505 6.99978C11.7933 7.10992 12.481 7.45606 13.012 7.98704C13.543 8.51803 13.8891 9.20572 13.9993 9.94853Z" stroke="#D3D3D3" stroke-linecap="round" stroke-linejoin="round"/>
<path d="M15.3125 5.6875H15.3198" stroke="#D3D3D3" stroke-linecap="round" stroke-linejoin="round"/>
</svg>
