<svg width="22" height="21" viewBox="0 0 22 21" fill="none" xmlns="http://www.w3.org/2000/svg">
<path d="M14.3335 7C15.7259 7 17.0612 7.55312 18.0458 8.53769C19.0304 9.52226 19.5835 10.8576 19.5835 12.25V18.375H16.0835V12.25C16.0835 11.7859 15.8991 11.3408 15.5709 11.0126C15.2427 10.6844 14.7976 10.5 14.3335 10.5C13.8694 10.5 13.4242 10.6844 13.0961 11.0126C12.7679 11.3408 12.5835 11.7859 12.5835 12.25V18.375H9.0835V12.25C9.0835 10.8576 9.63662 9.52226 10.6212 8.53769C11.6058 7.55312 12.9411 7 14.3335 7V7Z" stroke="#D3D3D3" stroke-linecap="round" stroke-linejoin="round"/>
<path d="M5.5835 7.875H2.0835V18.375H5.5835V7.875Z" stroke="#D3D3D3" stroke-linecap="round" stroke-linejoin="round"/>
<path d="M3.8335 5.25C4.79999 5.25 5.5835 4.4665 5.5835 3.5C5.5835 2.5335 4.79999 1.75 3.8335 1.75C2.867 1.75 2.0835 2.5335 2.0835 3.5C2.0835 4.4665 2.867 5.25 3.8335 5.25Z" stroke="#D3D3D3" stroke-linecap="round" stroke-linejoin="round"/>
</svg>
